<?xml version="1.0" encoding="utf-8"?>
<!-- Generator: Adobe Illustrator 22.1.0, SVG Export Plug-In . SVG Version: 6.00 Build 0)  -->
<svg version="1.1" id="Layer_1" xmlns="http://www.w3.org/2000/svg" xmlns:xlink="http://www.w3.org/1999/xlink" x="0px" y="0px"
	 viewBox="0 0 492.9 36" style="enable-background:new 0 0 492.9 36;" xml:space="preserve">
<style type="text/css">
	.st0{enable-background:new    ;}
	.st1{fill:#FFFFFF;}
</style>
<title>Asset 22</title>
<g id="Layer_2_1_">
	<g id="Layer_1-2">
		<g class="st0">
			<path class="st1" d="M2.8,5.6h5.1c3.1,0,5.5,0.9,7.2,2.6c1.6,1.7,2.4,4.2,2.4,7.5c0,1.6-0.2,3.1-0.6,4.3c-0.4,1.3-1,2.3-1.8,3.2
				c-0.8,0.9-1.8,1.6-3,2c-1.2,0.5-2.5,0.7-4.1,0.7H2.8V5.6z M7.7,23.8c2.4,0,4.2-0.7,5.3-2.1c1.2-1.4,1.8-3.4,1.8-6
				s-0.6-4.6-1.8-5.9c-1.2-1.4-3-2-5.3-2H5.4v16.1H7.7z"/>
			<path class="st1" d="M20.5,18.4c0-1.2,0.2-2.4,0.6-3.3c0.4-1,0.9-1.8,1.5-2.5c0.6-0.7,1.3-1.2,2.2-1.6c0.8-0.4,1.6-0.5,2.5-0.5
				c1,0,1.8,0.2,2.6,0.5c0.8,0.3,1.4,0.8,1.9,1.4c0.5,0.6,0.9,1.4,1.2,2.2s0.4,1.8,0.4,2.9c0,0.6,0,1-0.1,1.4H23
				c0.1,1.6,0.6,2.9,1.5,3.9s2.1,1.4,3.5,1.4c0.7,0,1.4-0.1,2-0.3c0.6-0.2,1.2-0.5,1.8-0.9l0.9,1.7c-0.7,0.4-1.4,0.8-2.2,1.1
				c-0.8,0.3-1.7,0.5-2.8,0.5c-1,0-2-0.2-2.8-0.5c-0.9-0.4-1.6-0.9-2.3-1.6c-0.7-0.7-1.2-1.5-1.5-2.5C20.7,20.8,20.5,19.7,20.5,18.4
				z M31,17.3c0-1.5-0.3-2.7-1-3.5c-0.7-0.8-1.6-1.2-2.7-1.2c-0.5,0-1,0.1-1.5,0.3c-0.5,0.2-0.9,0.5-1.3,0.9c-0.4,0.4-0.7,0.9-1,1.5
				c-0.3,0.6-0.4,1.3-0.5,2H31z"/>
			<path class="st1" d="M39.5,27.2v5.1H37V10.9h2.1l0.2,1.7h0.1c0.7-0.6,1.4-1.1,2.2-1.5c0.8-0.4,1.7-0.6,2.6-0.6
				c1,0,1.8,0.2,2.6,0.5c0.7,0.4,1.4,0.9,1.9,1.5c0.5,0.7,0.9,1.5,1.1,2.4c0.3,0.9,0.4,2,0.4,3.2c0,1.3-0.2,2.4-0.5,3.4
				c-0.4,1-0.8,1.9-1.4,2.6c-0.6,0.7-1.3,1.2-2.1,1.6c-0.8,0.4-1.6,0.5-2.5,0.5c-0.7,0-1.4-0.2-2.1-0.5c-0.7-0.3-1.4-0.7-2.1-1.3
				L39.5,27.2z M39.5,22.6c0.7,0.6,1.3,1,2,1.2s1.2,0.4,1.7,0.4c0.6,0,1.2-0.1,1.7-0.4c0.5-0.3,1-0.7,1.4-1.2
				c0.4-0.5,0.7-1.1,0.9-1.9c0.2-0.7,0.3-1.6,0.3-2.5c0-0.8-0.1-1.6-0.2-2.3c-0.1-0.7-0.4-1.3-0.7-1.8c-0.3-0.5-0.7-0.9-1.2-1.1
				c-0.5-0.3-1.1-0.4-1.8-0.4c-0.6,0-1.3,0.2-1.9,0.5c-0.7,0.4-1.3,0.9-2.1,1.5V22.6z"/>
			<path class="st1" d="M54.2,3.9h2.5v19.2c0,0.4,0.1,0.7,0.2,0.9c0.1,0.2,0.3,0.2,0.5,0.2c0.1,0,0.2,0,0.2,0s0.2,0,0.3-0.1l0.3,1.9
				c-0.2,0.1-0.4,0.1-0.6,0.2c-0.2,0-0.5,0.1-0.9,0.1c-1,0-1.7-0.3-2.1-0.9c-0.4-0.6-0.6-1.4-0.6-2.5V3.9z"/>
			<path class="st1" d="M61,18.4c0-1.3,0.2-2.4,0.6-3.4c0.4-1,0.9-1.8,1.5-2.5c0.6-0.7,1.4-1.2,2.2-1.5c0.8-0.4,1.7-0.5,2.7-0.5
				c0.9,0,1.8,0.2,2.7,0.5c0.8,0.4,1.6,0.9,2.2,1.5c0.6,0.7,1.2,1.5,1.5,2.5c0.4,1,0.6,2.1,0.6,3.4c0,1.2-0.2,2.4-0.6,3.3
				c-0.4,1-0.9,1.8-1.5,2.5c-0.6,0.7-1.4,1.2-2.2,1.5c-0.8,0.4-1.7,0.5-2.7,0.5c-0.9,0-1.8-0.2-2.7-0.5s-1.6-0.9-2.2-1.5
				c-0.6-0.7-1.2-1.5-1.5-2.5C61.2,20.8,61,19.7,61,18.4z M63.6,18.4c0,0.9,0.1,1.7,0.3,2.4c0.2,0.7,0.5,1.3,0.9,1.8
				s0.8,0.9,1.4,1.2s1.1,0.4,1.8,0.4s1.2-0.1,1.8-0.4c0.5-0.3,1-0.7,1.4-1.2s0.7-1.1,0.9-1.8c0.2-0.7,0.3-1.5,0.3-2.4
				c0-0.9-0.1-1.7-0.3-2.4c-0.2-0.7-0.5-1.3-0.9-1.8s-0.8-0.9-1.4-1.2c-0.5-0.3-1.1-0.4-1.8-0.4s-1.2,0.1-1.8,0.4
				c-0.5,0.3-1,0.7-1.4,1.2s-0.7,1.1-0.9,1.8C63.7,16.8,63.6,17.6,63.6,18.4z"/>
			<path class="st1" d="M78.3,30.2c0.2,0.1,0.4,0.1,0.6,0.1c0.9,0,1.6-0.3,2.1-0.9c0.5-0.6,1-1.4,1.3-2.3l0.3-1.1l-6-15.1h2.6
				l3.1,8.3c0.2,0.7,0.5,1.4,0.7,2.1c0.3,0.7,0.5,1.5,0.7,2.2h0.1c0.2-0.7,0.4-1.4,0.7-2.1c0.2-0.7,0.4-1.4,0.6-2.1l2.7-8.3h2.5
				l-5.7,16.3c-0.3,0.7-0.6,1.4-0.9,2.1c-0.3,0.6-0.7,1.2-1.2,1.7s-1,0.8-1.5,1.1c-0.6,0.3-1.3,0.4-2,0.4c-0.4,0-0.7,0-1-0.1
				c-0.3-0.1-0.6-0.1-0.8-0.2l0.5-2C77.9,30.1,78.1,30.2,78.3,30.2z"/>
			<path class="st1" d="M99,30.2c0.2,0.1,0.4,0.1,0.6,0.1c0.9,0,1.6-0.3,2.1-0.9c0.5-0.6,1-1.4,1.3-2.3l0.3-1.1l-6-15.1h2.6l3.1,8.3
				c0.2,0.7,0.5,1.4,0.7,2.1c0.3,0.7,0.5,1.5,0.7,2.2h0.1c0.2-0.7,0.4-1.4,0.7-2.1c0.2-0.7,0.4-1.4,0.6-2.1l2.7-8.3h2.5l-5.7,16.3
				c-0.3,0.7-0.6,1.4-0.9,2.1c-0.3,0.6-0.7,1.2-1.2,1.7s-1,0.8-1.5,1.1c-0.6,0.3-1.3,0.4-2,0.4c-0.4,0-0.7,0-1-0.1
				c-0.3-0.1-0.6-0.1-0.8-0.2l0.5-2C98.7,30.1,98.8,30.2,99,30.2z"/>
			<path class="st1" d="M112.7,18.4c0-1.3,0.2-2.4,0.6-3.4c0.4-1,0.9-1.8,1.5-2.5c0.6-0.7,1.4-1.2,2.2-1.5c0.8-0.4,1.7-0.5,2.7-0.5
				c0.9,0,1.8,0.2,2.7,0.5c0.8,0.4,1.6,0.9,2.2,1.5c0.6,0.7,1.2,1.5,1.5,2.5c0.4,1,0.6,2.1,0.6,3.4c0,1.2-0.2,2.4-0.6,3.3
				c-0.4,1-0.9,1.8-1.5,2.5c-0.6,0.7-1.4,1.2-2.2,1.5c-0.8,0.4-1.7,0.5-2.7,0.5c-0.9,0-1.8-0.2-2.7-0.5s-1.6-0.9-2.2-1.5
				c-0.6-0.7-1.2-1.5-1.5-2.5C112.9,20.8,112.7,19.7,112.7,18.4z M115.4,18.4c0,0.9,0.1,1.7,0.3,2.4c0.2,0.7,0.5,1.3,0.9,1.8
				s0.8,0.9,1.4,1.2s1.1,0.4,1.8,0.4s1.2-0.1,1.8-0.4c0.5-0.3,1-0.7,1.4-1.2s0.7-1.1,0.9-1.8c0.2-0.7,0.3-1.5,0.3-2.4
				c0-0.9-0.1-1.7-0.3-2.4c-0.2-0.7-0.5-1.3-0.9-1.8s-0.8-0.9-1.4-1.2c-0.5-0.3-1.1-0.4-1.8-0.4s-1.2,0.1-1.8,0.4
				c-0.5,0.3-1,0.7-1.4,1.2s-0.7,1.1-0.9,1.8C115.5,16.8,115.4,17.6,115.4,18.4z"/>
			<path class="st1" d="M130.4,10.9h2.6v9.2c0,1.4,0.2,2.5,0.7,3.1c0.4,0.6,1.2,0.9,2.2,0.9c0.8,0,1.5-0.2,2.1-0.6
				c0.6-0.4,1.3-1,2-1.9V10.9h2.5v15.1h-2.1l-0.2-2.4H140c-0.7,0.8-1.4,1.5-2.2,2s-1.7,0.7-2.7,0.7c-1.6,0-2.8-0.5-3.5-1.5
				s-1.1-2.5-1.1-4.4V10.9z"/>
			<path class="st1" d="M147.5,10.9h2.1l0.2,2.7h0.1c0.5-1,1.1-1.7,1.9-2.3c0.7-0.6,1.5-0.8,2.4-0.8c0.6,0,1.1,0.1,1.6,0.3l-0.5,2.2
				c-0.2-0.1-0.5-0.1-0.7-0.2c-0.2,0-0.5-0.1-0.8-0.1c-0.6,0-1.3,0.3-2,0.8s-1.3,1.4-1.8,2.7v9.7h-2.5V10.9z"/>
			<path class="st1" d="M163.8,22c0-1.7,0.7-2.9,2.2-3.8c1.5-0.9,3.8-1.5,7.1-1.8c0-0.5,0-0.9-0.1-1.4c-0.1-0.5-0.3-0.9-0.5-1.2
				c-0.2-0.4-0.6-0.6-0.9-0.9c-0.4-0.2-0.9-0.3-1.5-0.3c-0.9,0-1.7,0.2-2.5,0.5c-0.8,0.3-1.4,0.7-2,1.1l-1-1.8
				c0.7-0.5,1.6-0.9,2.6-1.3c1-0.4,2.1-0.6,3.3-0.6c1.8,0,3.2,0.6,4,1.7c0.8,1.1,1.2,2.6,1.2,4.5v9.2h-2.1l-0.2-1.8h-0.1
				c-0.7,0.6-1.5,1.1-2.3,1.5c-0.8,0.4-1.7,0.6-2.7,0.6c-1.3,0-2.3-0.4-3.2-1.1C164.2,24.5,163.8,23.4,163.8,22z M166.3,21.8
				c0,0.9,0.3,1.5,0.8,1.9c0.5,0.4,1.1,0.6,1.9,0.6c0.7,0,1.4-0.2,2.1-0.5c0.7-0.3,1.3-0.8,2.1-1.5v-4.2c-1.3,0.2-2.3,0.4-3.2,0.6
				c-0.9,0.2-1.6,0.5-2.1,0.8c-0.5,0.3-0.9,0.7-1.1,1.1C166.4,20.9,166.3,21.4,166.3,21.8z"/>
			<path class="st1" d="M179.3,28.8c0-0.6,0.2-1.2,0.6-1.8s0.9-1.1,1.6-1.6v-0.1c-0.4-0.2-0.7-0.5-0.9-0.9c-0.3-0.4-0.4-0.9-0.4-1.5
				c0-0.6,0.2-1.2,0.5-1.7c0.4-0.5,0.7-0.8,1.1-1.1v-0.1c-0.5-0.4-0.9-1-1.3-1.7c-0.4-0.7-0.6-1.5-0.6-2.4c0-0.8,0.1-1.6,0.4-2.2
				c0.3-0.7,0.7-1.2,1.2-1.7c0.5-0.5,1.1-0.8,1.8-1.1s1.4-0.4,2.2-0.4c0.4,0,0.8,0,1.2,0.1c0.4,0.1,0.7,0.2,1,0.3h5.2v2h-3.1
				c0.4,0.4,0.6,0.8,0.9,1.3c0.2,0.5,0.4,1.1,0.4,1.8c0,0.8-0.1,1.5-0.4,2.2c-0.3,0.7-0.7,1.2-1.2,1.6c-0.5,0.4-1.1,0.8-1.8,1
				c-0.7,0.2-1.4,0.4-2.2,0.4c-0.4,0-0.8,0-1.1-0.1c-0.4-0.1-0.8-0.2-1.1-0.4c-0.3,0.2-0.5,0.5-0.7,0.8s-0.3,0.6-0.3,1
				c0,0.5,0.2,0.9,0.6,1.2s1.1,0.5,2.1,0.5h2.9c1.8,0,3.1,0.3,4,0.9c0.9,0.6,1.3,1.5,1.3,2.7c0,0.7-0.2,1.4-0.5,2
				c-0.4,0.6-0.9,1.2-1.5,1.7c-0.7,0.5-1.5,0.9-2.4,1.1c-0.9,0.3-2,0.4-3.2,0.4c-0.9,0-1.8-0.1-2.5-0.3c-0.8-0.2-1.4-0.4-2-0.8
				c-0.5-0.4-1-0.8-1.3-1.3C179.4,30.1,179.3,29.5,179.3,28.8z M181.5,28.5c0,0.8,0.4,1.4,1.2,1.9c0.8,0.5,1.8,0.7,3.2,0.7
				c0.7,0,1.4-0.1,2-0.3c0.6-0.2,1.1-0.4,1.5-0.7c0.4-0.3,0.7-0.6,1-1c0.2-0.4,0.3-0.8,0.3-1.1c0-0.7-0.3-1.2-0.8-1.5
				c-0.5-0.3-1.3-0.4-2.3-0.4H185c-0.3,0-0.6,0-0.9,0c-0.3,0-0.7-0.1-1-0.2c-0.5,0.4-0.9,0.8-1.2,1.2S181.5,28,181.5,28.5z
				 M185.5,19.5c0.4,0,0.8-0.1,1.2-0.2c0.4-0.2,0.7-0.4,1-0.7c0.3-0.3,0.5-0.7,0.7-1.1s0.2-0.9,0.2-1.5c0-1.1-0.3-2-0.9-2.6
				c-0.6-0.6-1.4-0.9-2.3-0.9c-0.9,0-1.6,0.3-2.3,0.9c-0.6,0.6-0.9,1.5-0.9,2.6c0,0.6,0.1,1.1,0.2,1.5c0.2,0.4,0.4,0.8,0.7,1.1
				c0.3,0.3,0.6,0.5,1,0.7S185.1,19.5,185.5,19.5z"/>
			<path class="st1" d="M194.5,18.4c0-1.2,0.2-2.4,0.6-3.3c0.4-1,0.9-1.8,1.5-2.5c0.6-0.7,1.3-1.2,2.2-1.6c0.8-0.4,1.6-0.5,2.5-0.5
				c1,0,1.8,0.2,2.6,0.5c0.8,0.3,1.4,0.8,1.9,1.4c0.5,0.6,0.9,1.4,1.2,2.2s0.4,1.8,0.4,2.9c0,0.6,0,1-0.1,1.4H197
				c0.1,1.6,0.6,2.9,1.5,3.9s2.1,1.4,3.5,1.4c0.7,0,1.4-0.1,2-0.3c0.6-0.2,1.2-0.5,1.8-0.9l0.9,1.7c-0.7,0.4-1.4,0.8-2.2,1.1
				c-0.8,0.3-1.7,0.5-2.8,0.5c-1,0-2-0.2-2.8-0.5c-0.9-0.4-1.6-0.9-2.3-1.6c-0.7-0.7-1.2-1.5-1.5-2.5
				C194.7,20.8,194.5,19.7,194.5,18.4z M205,17.3c0-1.5-0.3-2.7-1-3.5c-0.7-0.8-1.6-1.2-2.7-1.2c-0.5,0-1,0.1-1.5,0.3
				c-0.5,0.2-0.9,0.5-1.3,0.9c-0.4,0.4-0.7,0.9-1,1.5c-0.3,0.6-0.4,1.3-0.5,2H205z"/>
			<path class="st1" d="M211,10.9h2.1l0.2,2.2h0.1c0.7-0.7,1.5-1.3,2.3-1.8c0.8-0.5,1.7-0.7,2.8-0.7c1.6,0,2.8,0.5,3.5,1.5
				c0.7,1,1.1,2.5,1.1,4.4v9.5h-2.5v-9.2c0-1.4-0.2-2.5-0.7-3.1c-0.5-0.6-1.2-0.9-2.2-0.9c-0.8,0-1.5,0.2-2.1,0.6
				c-0.6,0.4-1.3,1-2,1.7v10.9H211V10.9z"/>
			<path class="st1" d="M226.8,18.4c0-1.3,0.2-2.4,0.6-3.4c0.4-1,0.9-1.8,1.6-2.5c0.7-0.7,1.4-1.2,2.3-1.5c0.9-0.4,1.8-0.5,2.8-0.5
				c1,0,1.8,0.2,2.6,0.5c0.7,0.4,1.3,0.8,1.8,1.3l-1.3,1.6c-0.5-0.4-0.9-0.7-1.4-1c-0.5-0.2-1-0.4-1.6-0.4c-0.7,0-1.3,0.1-1.9,0.4
				c-0.6,0.3-1.1,0.7-1.5,1.2c-0.4,0.5-0.7,1.1-1,1.8c-0.2,0.7-0.4,1.5-0.4,2.4c0,0.9,0.1,1.7,0.3,2.4c0.2,0.7,0.5,1.3,0.9,1.8
				c0.4,0.5,0.9,0.9,1.5,1.2s1.2,0.4,1.9,0.4c0.7,0,1.4-0.1,2-0.4c0.6-0.3,1.1-0.7,1.6-1.1l1.1,1.7c-0.7,0.6-1.4,1.1-2.3,1.4
				c-0.8,0.4-1.7,0.5-2.6,0.5c-1,0-1.9-0.2-2.8-0.5c-0.9-0.4-1.6-0.9-2.2-1.5c-0.6-0.7-1.1-1.5-1.5-2.5
				C227,20.8,226.8,19.7,226.8,18.4z"/>
			<path class="st1" d="M241.8,30.2c0.2,0.1,0.4,0.1,0.6,0.1c0.9,0,1.6-0.3,2.1-0.9c0.5-0.6,1-1.4,1.3-2.3l0.3-1.1l-6-15.1h2.6
				l3.1,8.3c0.2,0.7,0.5,1.4,0.7,2.1c0.3,0.7,0.5,1.5,0.7,2.2h0.1c0.2-0.7,0.4-1.4,0.7-2.1c0.2-0.7,0.4-1.4,0.6-2.1l2.7-8.3h2.5
				l-5.7,16.3c-0.3,0.7-0.6,1.4-0.9,2.1c-0.3,0.6-0.7,1.2-1.2,1.7s-1,0.8-1.5,1.1c-0.6,0.3-1.3,0.4-2,0.4c-0.4,0-0.7,0-1-0.1
				c-0.3-0.1-0.6-0.1-0.8-0.2l0.5-2C241.4,30.1,241.6,30.2,241.8,30.2z"/>
			<path class="st1" d="M256.8,7.4l-0.1-2.9h2.7l-0.1,2.9l-0.5,5.2h-1.5L256.8,7.4z"/>
			<path class="st1" d="M263.4,22.5c0.7,0.5,1.3,1,2,1.3s1.5,0.5,2.4,0.5c1,0,1.7-0.2,2.2-0.7s0.7-1,0.7-1.7c0-0.4-0.1-0.7-0.3-1
				s-0.5-0.5-0.8-0.8s-0.7-0.4-1.1-0.6c-0.4-0.2-0.8-0.3-1.2-0.5c-0.5-0.2-1.1-0.4-1.6-0.6c-0.5-0.2-1-0.5-1.4-0.9
				c-0.4-0.3-0.8-0.7-1-1.2c-0.3-0.5-0.4-1-0.4-1.6c0-0.6,0.1-1.2,0.4-1.7s0.6-1,1-1.4c0.4-0.4,1-0.7,1.6-0.9s1.4-0.3,2.2-0.3
				c1,0,1.8,0.2,2.6,0.5c0.8,0.3,1.5,0.7,2.1,1.2l-1.2,1.6c-0.5-0.4-1.1-0.7-1.6-1s-1.2-0.4-1.8-0.4c-1,0-1.6,0.2-2.1,0.7
				c-0.4,0.4-0.7,0.9-0.7,1.5c0,0.4,0.1,0.7,0.3,0.9c0.2,0.3,0.4,0.5,0.7,0.7c0.3,0.2,0.7,0.4,1.1,0.5c0.4,0.2,0.8,0.3,1.3,0.5
				c0.5,0.2,1.1,0.4,1.6,0.7c0.5,0.2,1,0.5,1.5,0.9c0.4,0.3,0.8,0.8,1.1,1.3c0.3,0.5,0.4,1.1,0.4,1.8c0,0.6-0.1,1.2-0.4,1.7
				c-0.2,0.5-0.6,1-1.1,1.4c-0.5,0.4-1,0.7-1.7,1c-0.7,0.2-1.5,0.4-2.4,0.4c-1.1,0-2.1-0.2-3.1-0.6c-1-0.4-1.8-0.9-2.5-1.5
				L263.4,22.5z"/>
		</g>
		<g class="st0">
			<path class="st1" d="M420,5.7c-0.6-0.2-1.1-0.4-1.7-0.4c-1.4,0-2.1,1-2.1,2.9v2.4h3.2v2.1h-3.2v13h-2.5v-13h-2v-1.9l2-0.2V8.3
				c0-1.5,0.4-2.8,1.1-3.7c0.7-0.9,1.8-1.3,3.3-1.3c0.5,0,0.9,0,1.3,0.1c0.4,0.1,0.8,0.2,1.2,0.4L420,5.7z"/>
			<path class="st1" d="M420.8,21.8c0-1.7,0.7-2.9,2.2-3.8c1.5-0.9,3.8-1.5,7.1-1.8c0-0.5,0-0.9-0.1-1.4c-0.1-0.5-0.3-0.9-0.5-1.2
				c-0.2-0.4-0.6-0.6-0.9-0.9c-0.4-0.2-0.9-0.3-1.5-0.3c-0.9,0-1.7,0.2-2.5,0.5c-0.8,0.3-1.4,0.7-2,1.1l-1-1.8
				c0.7-0.5,1.6-0.9,2.6-1.3c1-0.4,2.1-0.6,3.3-0.6c1.8,0,3.2,0.6,4,1.7c0.8,1.1,1.2,2.6,1.2,4.5v9.2h-2.1l-0.2-1.8h-0.1
				c-0.7,0.6-1.5,1.1-2.3,1.5s-1.7,0.6-2.7,0.6c-1.3,0-2.3-0.4-3.2-1.1C421.3,24.2,420.8,23.2,420.8,21.8z M423.4,21.6
				c0,0.9,0.3,1.5,0.8,1.9c0.5,0.4,1.1,0.6,1.9,0.6c0.7,0,1.4-0.2,2.1-0.5c0.7-0.3,1.3-0.8,2.1-1.5v-4.2c-1.3,0.2-2.3,0.4-3.2,0.6
				c-0.9,0.2-1.6,0.5-2.1,0.8c-0.5,0.3-0.9,0.7-1.1,1.1S423.4,21.2,423.4,21.6z"/>
			<path class="st1" d="M437.1,22.3c0.7,0.5,1.3,1,2,1.3c0.7,0.3,1.5,0.5,2.4,0.5c1,0,1.7-0.2,2.2-0.7c0.5-0.5,0.7-1,0.7-1.7
				c0-0.4-0.1-0.7-0.3-1c-0.2-0.3-0.5-0.5-0.8-0.8c-0.3-0.2-0.7-0.4-1.1-0.6c-0.4-0.2-0.8-0.3-1.2-0.5c-0.5-0.2-1.1-0.4-1.6-0.6
				c-0.5-0.2-1-0.5-1.4-0.9c-0.4-0.3-0.8-0.7-1-1.2c-0.3-0.5-0.4-1-0.4-1.6c0-0.6,0.1-1.2,0.4-1.7c0.2-0.5,0.6-1,1-1.4
				c0.4-0.4,1-0.7,1.6-0.9s1.4-0.3,2.2-0.3c1,0,1.8,0.2,2.6,0.5c0.8,0.3,1.5,0.7,2.1,1.2l-1.2,1.6c-0.5-0.4-1.1-0.7-1.6-1
				c-0.6-0.2-1.2-0.4-1.8-0.4c-1,0-1.6,0.2-2.1,0.7c-0.4,0.4-0.7,0.9-0.7,1.5c0,0.4,0.1,0.7,0.3,0.9c0.2,0.3,0.4,0.5,0.7,0.7
				s0.7,0.4,1.1,0.5c0.4,0.2,0.8,0.3,1.3,0.5c0.5,0.2,1.1,0.4,1.6,0.7c0.5,0.2,1,0.5,1.5,0.9c0.4,0.3,0.8,0.8,1.1,1.3
				s0.4,1.1,0.4,1.8c0,0.6-0.1,1.2-0.4,1.7c-0.2,0.5-0.6,1-1.1,1.4s-1,0.7-1.7,1c-0.7,0.2-1.5,0.4-2.4,0.4c-1.1,0-2.1-0.2-3.1-0.6
				c-1-0.4-1.8-0.9-2.5-1.5L437.1,22.3z"/>
			<path class="st1" d="M450.9,12.7h-2.2v-1.9l2.4-0.2l0.3-4.2h2.1v4.2h4.1v2.1h-4.1v8.4c0,0.9,0.2,1.6,0.5,2.2
				c0.3,0.5,0.9,0.8,1.8,0.8c0.3,0,0.6,0,0.9-0.1c0.3-0.1,0.6-0.2,0.8-0.3l0.5,1.9c-0.4,0.1-0.9,0.3-1.3,0.4c-0.5,0.1-1,0.2-1.4,0.2
				c-0.8,0-1.5-0.1-2-0.4s-1-0.6-1.3-1c-0.3-0.4-0.6-1-0.7-1.6c-0.1-0.6-0.2-1.3-0.2-2V12.7z"/>
			<path class="st1" d="M459.5,18.2c0-1.2,0.2-2.4,0.6-3.3c0.4-1,0.9-1.8,1.5-2.5c0.6-0.7,1.3-1.2,2.2-1.6c0.8-0.4,1.6-0.5,2.5-0.5
				c0.9,0,1.8,0.2,2.6,0.5c0.8,0.3,1.4,0.8,1.9,1.4c0.5,0.6,0.9,1.4,1.2,2.2s0.4,1.8,0.4,2.9c0,0.6,0,1-0.1,1.4H462
				c0.1,1.6,0.6,2.9,1.5,3.9c0.9,0.9,2.1,1.4,3.5,1.4c0.7,0,1.4-0.1,2-0.3s1.2-0.5,1.8-0.9l0.9,1.7c-0.7,0.4-1.4,0.8-2.2,1.1
				s-1.7,0.5-2.8,0.5c-1,0-2-0.2-2.8-0.5s-1.6-0.9-2.3-1.5s-1.2-1.5-1.5-2.5C459.7,20.6,459.5,19.5,459.5,18.2z M470,17.1
				c0-1.5-0.3-2.7-1-3.5c-0.7-0.8-1.6-1.2-2.7-1.2c-0.5,0-1,0.1-1.5,0.3c-0.5,0.2-0.9,0.5-1.3,0.9c-0.4,0.4-0.7,0.9-1,1.5
				c-0.3,0.6-0.4,1.3-0.5,2H470z"/>
			<path class="st1" d="M476,10.7h2.1l0.2,2.7h0.1c0.5-1,1.1-1.7,1.9-2.3c0.7-0.6,1.5-0.8,2.4-0.8c0.6,0,1.1,0.1,1.6,0.3l-0.5,2.2
				c-0.2-0.1-0.5-0.1-0.7-0.2c-0.2,0-0.5-0.1-0.8-0.1c-0.6,0-1.3,0.3-2,0.8c-0.7,0.5-1.3,1.4-1.8,2.7v9.7H476V10.7z"/>
			<path class="st1" d="M484.5,24.2c0-0.6,0.2-1.1,0.5-1.4s0.8-0.5,1.3-0.5c0.5,0,0.9,0.2,1.3,0.5s0.5,0.8,0.5,1.4
				c0,0.6-0.2,1-0.5,1.4s-0.8,0.5-1.3,0.5c-0.5,0-1-0.2-1.3-0.5S484.5,24.7,484.5,24.2z"/>
		</g>
	</g>
</g>
</svg>
