<?xml version="1.0" encoding="utf-8"?>
<!-- Generator: Adobe Illustrator 22.1.0, SVG Export Plug-In . SVG Version: 6.00 Build 0)  -->
<svg version="1.1" id="Layer_1" xmlns="http://www.w3.org/2000/svg" xmlns:xlink="http://www.w3.org/1999/xlink" x="0px" y="0px"
	 viewBox="0 0 108.9 37.6" style="enable-background:new 0 0 108.9 37.6;" xml:space="preserve">
<style type="text/css">
	.st0{enable-background:new    ;}
	.st1{fill:#FFFFFF;}
</style>
<title>Asset 25</title>
<g id="Layer_2_1_">
	<g id="Layer_1-2">
		<g class="st0">
			<path class="st1" d="M4.3,8.1c-0.8,0-1.4-0.2-1.9-0.7C1.9,7,1.6,6.4,1.6,5.7C1.6,5,1.9,4.4,2.4,4c0.5-0.4,1.1-0.7,1.9-0.7
				c0.8,0,1.4,0.2,1.9,0.7c0.5,0.4,0.7,1,0.7,1.7c0,0.7-0.2,1.3-0.7,1.7C5.7,7.9,5.1,8.1,4.3,8.1z M2,10.4h4.6v15.4H2V10.4z"/>
			<path class="st1" d="M10.6,10.4h3.7l0.3,2h0.1c0.7-0.6,1.4-1.2,2.2-1.6c0.8-0.5,1.7-0.7,2.8-0.7c1.7,0,2.9,0.5,3.6,1.6
				c0.8,1.1,1.1,2.6,1.1,4.6v9.5h-4.6v-9c0-1.1-0.1-1.9-0.4-2.3c-0.3-0.4-0.8-0.6-1.4-0.6c-0.6,0-1.1,0.1-1.5,0.4
				c-0.4,0.3-0.9,0.6-1.4,1.1v10.4h-4.6V10.4z"/>
			<path class="st1" d="M28.9,13.9h-2.1v-3.4l2.4-0.2l0.5-4.1h3.8v4.1h3.7v3.6h-3.7v6.2c0,0.9,0.2,1.5,0.5,1.9
				c0.4,0.4,0.8,0.6,1.4,0.6c0.2,0,0.5,0,0.8-0.1c0.3-0.1,0.5-0.1,0.7-0.2l0.7,3.3c-0.4,0.1-0.9,0.2-1.5,0.4c-0.6,0.1-1.2,0.2-2,0.2
				c-1,0-1.8-0.1-2.4-0.4c-0.7-0.3-1.2-0.7-1.6-1.2c-0.4-0.5-0.7-1.1-0.9-1.9c-0.2-0.7-0.3-1.5-0.3-2.4V13.9z"/>
			<path class="st1" d="M40.2,10.4h3.7l0.3,2.7h0.1c0.6-1.1,1.2-1.8,2-2.3c0.8-0.5,1.6-0.7,2.4-0.7c0.4,0,0.8,0,1.1,0.1
				c0.3,0.1,0.5,0.1,0.8,0.2l-0.7,3.9c-0.3-0.1-0.6-0.1-0.8-0.2c-0.2,0-0.5-0.1-0.9-0.1c-0.6,0-1.2,0.2-1.8,0.6
				c-0.6,0.4-1.2,1.1-1.6,2.2v8.9h-4.6V10.4z"/>
			<path class="st1" d="M51.1,21.5c0-1.6,0.7-2.9,2-3.8c1.4-0.9,3.6-1.5,6.6-1.8c0-0.7-0.2-1.2-0.6-1.6s-1-0.6-1.8-0.6
				c-0.7,0-1.3,0.1-2,0.4c-0.7,0.2-1.4,0.6-2.1,1l-1.6-3c1-0.6,2-1.1,3.1-1.5c1.1-0.4,2.2-0.6,3.5-0.6c2,0,3.5,0.6,4.5,1.7
				c1,1.1,1.6,2.9,1.6,5.3v8.8h-3.7l-0.3-1.6h-0.1c-0.7,0.6-1.4,1-2.1,1.4c-0.7,0.4-1.5,0.5-2.4,0.5c-0.7,0-1.3-0.1-1.9-0.4
				c-0.6-0.2-1-0.6-1.4-1s-0.7-0.9-0.9-1.5C51.2,22.7,51.1,22.1,51.1,21.5z M55.4,21.1c0,0.5,0.2,0.9,0.5,1.1
				c0.3,0.2,0.7,0.4,1.3,0.4c0.5,0,1-0.1,1.4-0.3c0.4-0.2,0.8-0.5,1.2-1v-2.7c-1.6,0.2-2.8,0.6-3.4,1S55.4,20.5,55.4,21.1z"/>
			<path class="st1" d="M68.2,10.4h3.7l0.3,2h0.1c0.7-0.6,1.4-1.2,2.2-1.6s1.7-0.7,2.8-0.7c1.7,0,2.9,0.5,3.6,1.6
				c0.8,1.1,1.1,2.6,1.1,4.6v9.5h-4.6v-9c0-1.1-0.2-1.9-0.4-2.3c-0.3-0.4-0.8-0.6-1.4-0.6c-0.6,0-1.1,0.1-1.5,0.4
				c-0.4,0.3-0.9,0.6-1.4,1.1v10.4h-4.6V10.4z"/>
			<path class="st1" d="M85,18c0-1.2,0.2-2.4,0.6-3.4c0.4-1,1-1.8,1.6-2.5c0.7-0.7,1.4-1.2,2.3-1.6c0.9-0.4,1.8-0.6,2.7-0.6
				c1.1,0,2.1,0.2,2.9,0.6c0.8,0.4,1.5,0.9,2,1.6c0.5,0.7,1,1.4,1.2,2.3c0.3,0.9,0.4,1.9,0.4,2.9c0,0.4,0,0.8-0.1,1.1
				c0,0.3-0.1,0.6-0.1,0.8h-9.2c0.2,1.2,0.7,2,1.4,2.6s1.6,0.8,2.6,0.8c1.1,0,2.2-0.3,3.3-1l1.5,2.8c-0.8,0.5-1.7,1-2.6,1.3
				s-1.9,0.5-2.8,0.5c-1.1,0-2.1-0.2-3.1-0.5c-1-0.4-1.8-0.9-2.5-1.6c-0.7-0.7-1.2-1.5-1.6-2.5C85.2,20.5,85,19.3,85,18z M94.9,16.5
				c0-0.9-0.2-1.6-0.6-2.2c-0.4-0.6-1.1-0.8-2-0.8c-0.7,0-1.4,0.2-1.9,0.7c-0.5,0.5-0.9,1.2-1.1,2.3H94.9z"/>
			<path class="st1" d="M102,13.9h-2.1v-3.4l2.4-0.2l0.5-4.1h3.8v4.1h3.7v3.6h-3.7v6.2c0,0.9,0.2,1.5,0.5,1.9
				c0.4,0.4,0.8,0.6,1.4,0.6c0.2,0,0.5,0,0.8-0.1c0.3-0.1,0.5-0.1,0.7-0.2l0.7,3.3c-0.4,0.1-0.9,0.2-1.5,0.4c-0.6,0.1-1.2,0.2-2,0.2
				c-1,0-1.8-0.1-2.4-0.4s-1.2-0.7-1.6-1.2c-0.4-0.5-0.7-1.1-0.9-1.9c-0.2-0.7-0.3-1.5-0.3-2.4V13.9z"/>
		</g>
	</g>
</g>
</svg>
