<svg xmlns="http://www.w3.org/2000/svg" viewBox="0 0 61.94 18.13"><defs><style>.cls-1{fill:#fff;}</style></defs><title>Liferay Logo</title><g id="Layer_2" data-name="Layer 2"><g id="Layer_1-2" data-name="Layer 1"><path class="cls-1" d="M11.8,1.42H.94A.94.94,0,0,0,0,2.36V13.22a1,1,0,0,0,.94.95H11.8a1,1,0,0,0,.95-.95V2.36A.94.94,0,0,0,11.8,1.42Zm-8,8.26a.24.24,0,0,1-.24.24H2.12a.23.23,0,0,1-.23-.24V8.26A.23.23,0,0,1,2.12,8H3.54a.23.23,0,0,1,.24.23Zm0-2.36a.24.24,0,0,1-.24.24H2.12a.23.23,0,0,1-.23-.24V5.9a.23.23,0,0,1,.23-.23H3.54a.23.23,0,0,1,.24.23ZM3.78,5a.23.23,0,0,1-.24.23H2.12A.23.23,0,0,1,1.89,5V3.54a.23.23,0,0,1,.23-.23H3.54a.23.23,0,0,1,.24.23ZM6.14,12a.24.24,0,0,1-.24.24H4.49A.24.24,0,0,1,4.25,12V10.62a.23.23,0,0,1,.24-.23H5.9a.23.23,0,0,1,.24.23Zm0-4.72a.24.24,0,0,1-.24.24H4.49a.24.24,0,0,1-.24-.24V5.9a.23.23,0,0,1,.24-.23H5.9a.23.23,0,0,1,.24.23ZM6.14,5a.23.23,0,0,1-.24.23H4.49A.23.23,0,0,1,4.25,5V3.54a.23.23,0,0,1,.24-.23H5.9a.23.23,0,0,1,.24.23ZM8.5,12a.24.24,0,0,1-.24.24H6.85A.24.24,0,0,1,6.61,12V10.62a.23.23,0,0,1,.24-.23H8.26a.23.23,0,0,1,.24.23Zm0-2.36a.24.24,0,0,1-.24.24H6.85a.24.24,0,0,1-.24-.24V8.26A.23.23,0,0,1,6.85,8H8.26a.23.23,0,0,1,.24.23ZM8.5,5a.23.23,0,0,1-.24.23H6.85A.23.23,0,0,1,6.61,5V3.54a.23.23,0,0,1,.24-.23H8.26a.23.23,0,0,1,.24.23ZM10.86,12a.24.24,0,0,1-.24.24H9.21A.24.24,0,0,1,9,12V10.62a.23.23,0,0,1,.24-.23h1.41a.23.23,0,0,1,.24.23Zm0-2.36a.24.24,0,0,1-.24.24H9.21A.24.24,0,0,1,9,9.68V8.26A.23.23,0,0,1,9.21,8h1.41a.23.23,0,0,1,.24.23Zm0-2.36a.24.24,0,0,1-.24.24H9.21A.24.24,0,0,1,9,7.32V5.9a.23.23,0,0,1,.24-.23h1.41a.23.23,0,0,1,.24.23Z"/><path class="cls-1" d="M23.23,13.06H17.64V1.49a.12.12,0,0,0-.12-.12h-.88a.11.11,0,0,0-.11.12V13.91a.1.1,0,0,0,.11.11h6.59a.11.11,0,0,0,.12-.11v-.76C23.35,13.1,23.3,13.06,23.23,13.06Z"/><path class="cls-1" d="M31.52,4.75h-2V2.9C29.54,1.61,30,1,30.83,1a2.67,2.67,0,0,1,1,.23.07.07,0,0,0,.1,0L32,1.13l.23-.68A.1.1,0,0,0,32.2.31,3.62,3.62,0,0,0,30.83,0c-1.51,0-2.36,1-2.36,2.83V4.75l-1.13.07a.11.11,0,0,0-.12.11v.64a.12.12,0,0,0,.12.12h1.13v8.22a.11.11,0,0,0,.12.11h.83a.11.11,0,0,0,.12-.11V5.69h2a.12.12,0,0,0,.12-.12V4.84s-.05-.09-.12-.09Z"/><path class="cls-1" d="M35.82,4.51c-2,0-4.06,1.72-4.06,4.89,0,2.85,1.77,4.86,4.29,4.86a5.25,5.25,0,0,0,2.93-.9A.13.13,0,0,0,39,13.2l-.36-.64s0-.05-.07-.05-.07,0-.09,0a3.91,3.91,0,0,1-2.36.78c-1.92,0-3.21-1.49-3.29-3.69h6.4a.14.14,0,0,0,.12-.09,3.54,3.54,0,0,0,0-.71C39.38,6.11,38.06,4.51,35.82,4.51Zm-3,4.18c.21-1.91,1.42-3.24,3-3.24s2.52,1.16,2.55,3.24Z"/><path class="cls-1" d="M45.43,4.72a2,2,0,0,0-1-.19A3.09,3.09,0,0,0,42,6.23l-.07-1.37a.1.1,0,0,0-.11-.11h-.71a.11.11,0,0,0-.12.11v9.07a.12.12,0,0,0,.12.12h.82a.12.12,0,0,0,.12-.12V7.79c.57-1.42,1.44-2.24,2.36-2.24a2.29,2.29,0,0,1,.78.14h.1a.13.13,0,0,0,0-.07l.19-.76A.1.1,0,0,0,45.43,4.72Z"/><path class="cls-1" d="M52.89,4.75h-.74a.1.1,0,0,0-.11.11l0,.69a4,4,0,0,0-2.62-1c-2.41,0-4.13,2.06-4.13,4.89,0,3.05,1.44,4.86,3.87,4.86A4.3,4.3,0,0,0,52,13l.07,1a.12.12,0,0,0,.12.12h.71A.12.12,0,0,0,53,14V4.86c0-.07-.07-.11-.14-.11Zm-1,1.84v5.26a3.82,3.82,0,0,1-2.71,1.42c-1.8,0-2.88-1.47-2.88-3.9,0-2.19,1.34-3.92,3.07-3.92A3.8,3.8,0,0,1,51.94,6.59Z"/><path class="cls-1" d="M61.9,4.79a.11.11,0,0,0-.09,0H61a.13.13,0,0,0-.12.07l-1.93,5.69c-.1.3-.22.63-.31,1s-.31.95-.45,1.37c-.19-.47-.38-1-.57-1.48-.11-.31-.23-.59-.33-.88L55.08,4.79A.14.14,0,0,0,55,4.72h-.89s-.07,0-.1,0a.12.12,0,0,0,0,.12l3.71,9.18-.24.76c-.35,1.06-1,2.31-2.22,2.31a2.3,2.3,0,0,1-.71-.14h-.09l-.07.07-.19.73a.12.12,0,0,0,.07.14,2.5,2.5,0,0,0,1,.19c1.39,0,2.48-1.06,3.16-3.07l3.57-10.2s0,0,0-.07Z"/><path class="cls-1" d="M25.59,2.69a.26.26,0,0,0,.26-.26V1.58a.26.26,0,0,0-.26-.26h-.85a.26.26,0,0,0-.26.26v.85a.26.26,0,0,0,.26.26Zm-.85,2.06h.83a.11.11,0,0,1,.12.11v9.07a.12.12,0,0,1-.12.12h-.83a.12.12,0,0,1-.12-.12V4.86A.11.11,0,0,1,24.74,4.75Z"/></g></g></svg>