<?xml version="1.0" encoding="utf-8"?>
<!-- Generator: Adobe Illustrator 22.1.0, SVG Export Plug-In . SVG Version: 6.00 Build 0)  -->
<svg version="1.1" id="Layer_1" xmlns="http://www.w3.org/2000/svg" xmlns:xlink="http://www.w3.org/1999/xlink" x="0px" y="0px"
	 viewBox="0 0 89.9 37.6" style="enable-background:new 0 0 89.9 37.6;" xml:space="preserve">
<style type="text/css">
	.st0{enable-background:new    ;}
	.st1{fill:#FFFFFF;}
</style>
<title>Asset 24</title>
<g id="Layer_2_1_">
	<g id="Layer_1-2">
		<g class="st0">
			<path class="st1" d="M6.6,26.9v4.5H2V10.4h3.7L6,11.9h0.1c0.6-0.5,1.3-1,2-1.3C9,10.2,9.7,10,10.5,10c0.9,0,1.8,0.2,2.5,0.6
				c0.7,0.4,1.4,0.9,1.9,1.6c0.5,0.7,0.9,1.5,1.2,2.5c0.3,1,0.4,2,0.4,3.2c0,1.3-0.2,2.5-0.5,3.5c-0.4,1-0.8,1.9-1.5,2.6
				c-0.6,0.7-1.3,1.3-2.1,1.6c-0.8,0.4-1.6,0.6-2.4,0.6c-0.7,0-1.3-0.1-1.9-0.4C7.5,25.4,7,25,6.4,24.5L6.6,26.9z M6.6,21.4
				C7,21.8,7.4,22,7.8,22.2c0.4,0.1,0.8,0.2,1.2,0.2c0.8,0,1.5-0.4,2-1.1s0.8-1.9,0.8-3.5c0-2.8-0.9-4.2-2.7-4.2
				c-0.9,0-1.8,0.5-2.6,1.4V21.4z"/>
			<path class="st1" d="M18.9,18c0-1.3,0.2-2.4,0.6-3.4s1-1.8,1.7-2.5c0.7-0.7,1.5-1.2,2.4-1.6c0.9-0.4,1.8-0.5,2.8-0.5
				c1,0,1.9,0.2,2.8,0.5s1.7,0.9,2.4,1.6c0.7,0.7,1.2,1.5,1.7,2.5c0.4,1,0.6,2.1,0.6,3.4c0,1.3-0.2,2.4-0.6,3.4
				c-0.4,1-1,1.8-1.7,2.5c-0.7,0.7-1.5,1.2-2.4,1.6s-1.8,0.5-2.8,0.5c-1,0-1.9-0.2-2.8-0.5c-0.9-0.4-1.7-0.9-2.4-1.6
				c-0.7-0.7-1.2-1.5-1.7-2.5C19.1,20.5,18.9,19.3,18.9,18z M23.6,18c0,1.3,0.2,2.4,0.7,3.2c0.5,0.8,1.2,1.2,2.1,1.2
				c0.9,0,1.6-0.4,2.1-1.2c0.5-0.8,0.7-1.8,0.7-3.2c0-1.3-0.2-2.4-0.7-3.2c-0.5-0.8-1.2-1.2-2.1-1.2c-1,0-1.7,0.4-2.1,1.2
				C23.8,15.6,23.6,16.7,23.6,18z"/>
			<path class="st1" d="M37,10.4h3.7l0.3,2.7h0.1c0.6-1.1,1.2-1.8,2-2.3c0.8-0.5,1.6-0.7,2.4-0.7c0.4,0,0.8,0,1.1,0.1
				c0.3,0.1,0.5,0.1,0.8,0.2l-0.7,3.9c-0.3-0.1-0.6-0.1-0.8-0.2c-0.2,0-0.5-0.1-0.9-0.1c-0.6,0-1.2,0.2-1.8,0.6
				c-0.6,0.4-1.2,1.1-1.6,2.2v8.9H37V10.4z"/>
			<path class="st1" d="M49.9,13.9h-2.1v-3.4l2.4-0.2l0.5-4.1h3.8v4.1h3.7v3.6h-3.7v6.2c0,0.9,0.2,1.5,0.5,1.9
				c0.4,0.4,0.8,0.6,1.4,0.6c0.2,0,0.5,0,0.8-0.1c0.3-0.1,0.5-0.1,0.7-0.2l0.7,3.3c-0.4,0.1-0.9,0.2-1.5,0.4c-0.6,0.1-1.2,0.2-2,0.2
				c-1,0-1.8-0.1-2.4-0.4c-0.7-0.3-1.2-0.7-1.6-1.2c-0.4-0.5-0.7-1.1-0.9-1.9c-0.2-0.7-0.3-1.5-0.3-2.4V13.9z"/>
			<path class="st1" d="M60.3,21.5c0-1.6,0.7-2.9,2-3.8s3.6-1.5,6.6-1.8c0-0.7-0.2-1.2-0.6-1.6c-0.4-0.4-1-0.6-1.8-0.6
				c-0.7,0-1.3,0.1-2,0.4s-1.4,0.6-2.1,1l-1.6-3c1-0.6,2-1.1,3.1-1.5c1.1-0.4,2.2-0.6,3.5-0.6c2,0,3.5,0.6,4.5,1.7
				c1,1.1,1.6,2.9,1.6,5.3v8.8h-3.7l-0.3-1.6h-0.1c-0.7,0.6-1.4,1-2.1,1.4c-0.7,0.4-1.5,0.5-2.4,0.5c-0.7,0-1.3-0.1-1.9-0.4
				c-0.6-0.2-1-0.6-1.4-1s-0.7-0.9-0.9-1.5C60.4,22.7,60.3,22.1,60.3,21.5z M64.6,21.1c0,0.5,0.2,0.9,0.5,1.1
				c0.3,0.2,0.7,0.4,1.3,0.4c0.5,0,1-0.1,1.4-0.3c0.4-0.2,0.8-0.5,1.2-1v-2.7c-1.6,0.2-2.8,0.6-3.4,1C64.9,20,64.6,20.5,64.6,21.1z"
				/>
			<path class="st1" d="M77.4,4h4.6v17.1c0,0.5,0.1,0.8,0.3,1c0.2,0.2,0.4,0.3,0.5,0.3c0.1,0,0.2,0,0.3,0s0.2,0,0.3-0.1l0.6,3.4
				c-0.2,0.1-0.6,0.2-0.9,0.3c-0.4,0.1-0.8,0.1-1.3,0.1c-0.8,0-1.4-0.1-2-0.4s-1-0.6-1.3-1c-0.3-0.4-0.6-1-0.7-1.6s-0.2-1.3-0.2-2.1
				V4z"/>
		</g>
	</g>
</g>
</svg>
