<?xml version="1.0" encoding="utf-8"?>
<!-- Generator: Adobe Illustrator 22.1.0, SVG Export Plug-In . SVG Version: 6.00 Build 0)  -->
<svg version="1.1" id="Layer_1" xmlns="http://www.w3.org/2000/svg" xmlns:xlink="http://www.w3.org/1999/xlink" x="0px" y="0px"
	 viewBox="0 0 104.2 37.6" style="enable-background:new 0 0 104.2 37.6;" xml:space="preserve">
<style type="text/css">
	.st0{enable-background:new    ;}
	.st1{fill:#FFFFFF;}
</style>
<title>Asset 23</title>
<g id="Layer_2_1_">
	<g id="Layer_1-2">
		<g class="st0">
			<path class="st1" d="M0.7,10.4h4.5l1.5,7.1C6.9,18.2,7,19,7.1,19.7c0.1,0.7,0.2,1.5,0.3,2.3h0.1c0.1-0.8,0.3-1.6,0.4-2.3
				c0.1-0.8,0.3-1.5,0.5-2.2l1.7-7.1h3.9l1.7,7.1c0.2,0.8,0.4,1.5,0.5,2.3c0.1,0.7,0.3,1.5,0.5,2.3h0.1c0.1-0.8,0.3-1.6,0.4-2.3
				c0.1-0.7,0.2-1.5,0.4-2.3l1.5-7.1h4.2l-3.7,15.4h-5.3l-1.4-6.1c-0.2-0.7-0.3-1.4-0.4-2.2s-0.3-1.5-0.4-2.3h-0.1
				c-0.1,0.8-0.3,1.6-0.4,2.3c-0.1,0.7-0.2,1.4-0.4,2.2l-1.4,6.1H4.6L0.7,10.4z"/>
			<path class="st1" d="M24.9,18c0-1.2,0.2-2.4,0.6-3.4c0.4-1,1-1.8,1.6-2.5c0.7-0.7,1.4-1.2,2.3-1.6c0.9-0.4,1.8-0.6,2.7-0.6
				c1.1,0,2.1,0.2,2.9,0.6c0.8,0.4,1.5,0.9,2,1.6c0.5,0.7,1,1.4,1.2,2.3c0.3,0.9,0.4,1.9,0.4,2.9c0,0.4,0,0.8-0.1,1.1
				c0,0.3-0.1,0.6-0.1,0.8h-9.2c0.2,1.2,0.7,2,1.4,2.6s1.6,0.8,2.6,0.8c1.1,0,2.2-0.3,3.3-1l1.5,2.8c-0.8,0.5-1.7,1-2.6,1.3
				s-1.9,0.5-2.8,0.5c-1.1,0-2.1-0.2-3.1-0.5c-1-0.4-1.8-0.9-2.5-1.6c-0.7-0.7-1.3-1.5-1.6-2.5C25.1,20.5,24.9,19.3,24.9,18z
				 M34.8,16.5c0-0.9-0.2-1.6-0.6-2.2c-0.4-0.6-1.1-0.8-2-0.8c-0.7,0-1.4,0.2-1.9,0.7c-0.5,0.5-0.9,1.2-1.1,2.3H34.8z"/>
			<path class="st1" d="M41.9,4h4.6v5.3l-0.1,2.4c0.6-0.5,1.2-1,1.9-1.3c0.7-0.3,1.4-0.4,2.1-0.4c0.9,0,1.8,0.2,2.5,0.6
				c0.7,0.4,1.4,0.9,1.9,1.6c0.5,0.7,0.9,1.5,1.2,2.4c0.3,1,0.4,2,0.4,3.2c0,1.3-0.2,2.5-0.5,3.5s-0.8,1.9-1.5,2.6s-1.3,1.3-2.1,1.6
				c-0.8,0.4-1.6,0.6-2.4,0.6c-0.7,0-1.4-0.2-2.1-0.5c-0.7-0.3-1.3-0.8-1.9-1.5h-0.1l-0.4,1.6h-3.6V4z M46.4,21.4
				c0.4,0.4,0.8,0.6,1.2,0.8c0.4,0.1,0.8,0.2,1.2,0.2c0.8,0,1.5-0.4,2-1.1s0.8-1.9,0.8-3.5c0-2.8-0.9-4.2-2.7-4.2
				c-0.9,0-1.8,0.5-2.6,1.4V21.4z"/>
			<path class="st1" d="M60.2,21.1c0.7,0.5,1.4,0.9,2,1.2c0.6,0.3,1.3,0.4,2,0.4c0.7,0,1.2-0.1,1.5-0.3c0.3-0.2,0.5-0.5,0.5-1
				c0-0.2-0.1-0.5-0.3-0.7c-0.2-0.2-0.4-0.4-0.7-0.5c-0.3-0.2-0.6-0.3-1-0.5c-0.4-0.1-0.8-0.3-1.1-0.4c-0.5-0.2-1-0.4-1.4-0.7
				c-0.5-0.2-0.9-0.6-1.3-0.9s-0.7-0.8-1-1.3c-0.2-0.5-0.4-1-0.4-1.7c0-0.7,0.1-1.4,0.4-2c0.3-0.6,0.7-1.1,1.2-1.5
				c0.5-0.4,1.1-0.7,1.9-1c0.7-0.2,1.5-0.4,2.4-0.4c1.2,0,2.2,0.2,3.1,0.6c0.9,0.4,1.7,0.9,2.3,1.3l-2,2.7c-0.6-0.4-1.1-0.7-1.6-1
				c-0.5-0.2-1.1-0.3-1.6-0.3c-1.2,0-1.7,0.4-1.7,1.2c0,0.2,0.1,0.5,0.2,0.6c0.2,0.2,0.4,0.3,0.7,0.5s0.6,0.3,1,0.4
				c0.4,0.1,0.7,0.3,1.1,0.4c0.5,0.2,1,0.4,1.5,0.6s0.9,0.5,1.3,0.9c0.4,0.4,0.7,0.8,1,1.3c0.2,0.5,0.4,1.1,0.4,1.8s-0.1,1.4-0.4,2
				s-0.7,1.1-1.2,1.6c-0.5,0.4-1.2,0.8-2,1.1S65,26.1,64,26.1c-1,0-2.1-0.2-3.1-0.6s-2-0.9-2.8-1.6L60.2,21.1z"/>
			<path class="st1" d="M75.5,8.1c-0.8,0-1.4-0.2-1.9-0.7s-0.7-1-0.7-1.7c0-0.7,0.2-1.3,0.7-1.7c0.5-0.4,1.1-0.7,1.9-0.7
				c0.8,0,1.4,0.2,1.9,0.7c0.5,0.4,0.7,1,0.7,1.7c0,0.7-0.2,1.3-0.7,1.7C76.9,7.9,76.3,8.1,75.5,8.1z M73.2,10.4h4.6v15.4h-4.6V10.4
				z"/>
			<path class="st1" d="M82.4,13.9h-2.1v-3.4l2.4-0.2l0.5-4.1H87v4.1h3.7v3.6H87v6.2c0,0.9,0.2,1.5,0.5,1.9c0.4,0.4,0.8,0.6,1.4,0.6
				c0.2,0,0.5,0,0.8-0.1c0.3-0.1,0.5-0.1,0.7-0.2l0.7,3.3c-0.4,0.1-0.9,0.2-1.5,0.4c-0.6,0.1-1.2,0.2-2,0.2c-1,0-1.8-0.1-2.4-0.4
				c-0.7-0.3-1.2-0.7-1.6-1.2c-0.4-0.5-0.7-1.1-0.9-1.9c-0.2-0.7-0.3-1.5-0.3-2.4V13.9z"/>
			<path class="st1" d="M92.4,18c0-1.2,0.2-2.4,0.6-3.4c0.4-1,1-1.8,1.6-2.5c0.7-0.7,1.4-1.2,2.3-1.6c0.9-0.4,1.8-0.6,2.7-0.6
				c1.1,0,2.1,0.2,2.9,0.6c0.8,0.4,1.5,0.9,2,1.6c0.5,0.7,1,1.4,1.2,2.3c0.3,0.9,0.4,1.9,0.4,2.9c0,0.4,0,0.8-0.1,1.1
				s-0.1,0.6-0.1,0.8h-9.2c0.2,1.2,0.7,2,1.4,2.6s1.6,0.8,2.6,0.8c1.1,0,2.2-0.3,3.3-1l1.5,2.8c-0.8,0.5-1.7,1-2.6,1.3
				s-1.9,0.5-2.8,0.5c-1.1,0-2.1-0.2-3.1-0.5c-1-0.4-1.8-0.9-2.5-1.6c-0.7-0.7-1.3-1.5-1.6-2.5C92.6,20.5,92.4,19.3,92.4,18z
				 M102.4,16.5c0-0.9-0.2-1.6-0.6-2.2c-0.4-0.6-1.1-0.8-2-0.8c-0.7,0-1.4,0.2-1.9,0.7c-0.5,0.5-0.9,1.2-1.1,2.3H102.4z"/>
		</g>
	</g>
</g>
</svg>
